<svg xmlns="http://www.w3.org/2000/svg" xmlns:xlink="http://www.w3.org/1999/xlink" version="1.1" style="enable-background:new 0 0 480 480;" xml:space="preserve" width="480" height="480"><rect id="backgroundrect" width="100%" height="100%" x="0" y="0" fill="none" stroke="none"/>



















































<g class="currentLayer" style=""><title>Layer 1</title><g id="svg_1" class="" fill-opacity="1" fill="#006aff">
	<g id="svg_2" fill="#006aff">
		<path d="M472,76h-88V12c0-4.418-3.582-8-8-8H104c-4.418,0-8,3.582-8,8v112H8c-4.418,0-8,3.582-8,8v328c0,4.418,3.582,8,8,8    s8-3.582,8-8V140h80v328c0,4.418,3.582,8,8,8h272c4.418,0,8-3.582,8-8V92h80v368c0,4.418,3.582,8,8,8s8-3.582,8-8V84    C480,79.582,476.418,76,472,76z M232,460h-32v-72h32V460z M280,460h-32v-72h32V460z M368,460h-72v-80c0-4.418-3.582-8-8-8h-96    c-4.418,0-8,3.582-8,8v80h-72V20h256V460z" id="svg_3" fill="#006aff"/>
	</g>
</g><g id="svg_4" class="selected" fill-opacity="1" fill="#006aff">
	<g id="svg_5" fill="#006aff">
		<path d="M184,36h-48c-4.418,0-8,3.582-8,8v48c0,4.418,3.582,8,8,8h48c4.418,0,8-3.582,8-8V44C192,39.582,188.418,36,184,36z     M176,84h-32V52h32V84z" id="svg_6" fill="#006aff"/>
	</g>
</g><g id="svg_7" class="selected" fill-opacity="1" fill="#006aff">
	<g id="svg_8" fill="#006aff">
		<path d="M264,36h-48c-4.418,0-8,3.582-8,8v48c0,4.418,3.582,8,8,8h48c4.418,0,8-3.582,8-8V44C272,39.582,268.418,36,264,36z     M256,84h-32V52h32V84z" id="svg_9" fill="#006aff"/>
	</g>
</g><g id="svg_10" class="selected" fill-opacity="1" fill="#006aff">
	<g id="svg_11" fill="#006aff">
		<path d="M344,36h-48c-4.418,0-8,3.582-8,8v48c0,4.418,3.582,8,8,8h48c4.418,0,8-3.582,8-8V44C352,39.582,348.418,36,344,36z     M336,84h-32V52h32V84z" id="svg_12" fill="#006aff"/>
	</g>
</g><g id="svg_13" class="selected" fill-opacity="1" fill="#006aff">
	<g id="svg_14" fill="#006aff">
		<path d="M184,116h-48c-4.418,0-8,3.582-8,8v48c0,4.418,3.582,8,8,8h48c4.418,0,8-3.582,8-8v-48C192,119.582,188.418,116,184,116z     M176,164h-32v-32h32V164z" id="svg_15" fill="#006aff"/>
	</g>
</g><g id="svg_16" class="selected" fill-opacity="1" fill="#006aff">
	<g id="svg_17" fill="#006aff">
		<path d="M264,116h-48c-4.418,0-8,3.582-8,8v48c0,4.418,3.582,8,8,8h48c4.418,0,8-3.582,8-8v-48C272,119.582,268.418,116,264,116z     M256,164h-32v-32h32V164z" id="svg_18" fill="#006aff"/>
	</g>
</g><g id="svg_19" class="selected" fill-opacity="1" fill="#006aff">
	<g id="svg_20" fill="#006aff">
		<path d="M344,116h-48c-4.418,0-8,3.582-8,8v48c0,4.418,3.582,8,8,8h48c4.418,0,8-3.582,8-8v-48C352,119.582,348.418,116,344,116z     M336,164h-32v-32h32V164z" id="svg_21" fill="#006aff"/>
	</g>
</g><g id="svg_22" class="selected" fill-opacity="1" fill="#006aff">
	<g id="svg_23" fill="#006aff">
		<path d="M184,196h-48c-4.418,0-8,3.582-8,8v48c0,4.418,3.582,8,8,8h48c4.418,0,8-3.582,8-8v-48C192,199.582,188.418,196,184,196z     M176,244h-32v-32h32V244z" id="svg_24" fill="#006aff"/>
	</g>
</g><g id="svg_25" class="selected" fill-opacity="1" fill="#006aff">
	<g id="svg_26" fill="#006aff">
		<path d="M264,196h-48c-4.418,0-8,3.582-8,8v48c0,4.418,3.582,8,8,8h48c4.418,0,8-3.582,8-8v-48C272,199.582,268.418,196,264,196z     M256,244h-32v-32h32V244z" id="svg_27" fill="#006aff"/>
	</g>
</g><g id="svg_28" class="selected" fill-opacity="1" fill="#006aff">
	<g id="svg_29" fill="#006aff">
		<path d="M344,196h-48c-4.418,0-8,3.582-8,8v48c0,4.418,3.582,8,8,8h48c4.418,0,8-3.582,8-8v-48C352,199.582,348.418,196,344,196z     M336,244h-32v-32h32V244z" id="svg_30" fill="#006aff"/>
	</g>
</g><g id="svg_31" class="selected" fill-opacity="1" fill="#006aff">
	<g id="svg_32" fill="#006aff">
		<path d="M184,276h-48c-4.418,0-8,3.582-8,8v48c0,4.418,3.582,8,8,8h48c4.418,0,8-3.582,8-8v-48C192,279.582,188.418,276,184,276z     M176,324h-32v-32h32V324z" id="svg_33" fill="#006aff"/>
	</g>
</g><g id="svg_34" class="selected" fill-opacity="1" fill="#006aff">
	<g id="svg_35" fill="#006aff">
		<path d="M264,276h-48c-4.418,0-8,3.582-8,8v48c0,4.418,3.582,8,8,8h48c4.418,0,8-3.582,8-8v-48C272,279.582,268.418,276,264,276z     M256,324h-32v-32h32V324z" id="svg_36" fill="#006aff"/>
	</g>
</g><g id="svg_37" class="selected" fill-opacity="1" fill="#006aff">
	<g id="svg_38" fill="#006aff">
		<path d="M344,276h-48c-4.418,0-8,3.582-8,8v48c0,4.418,3.582,8,8,8h48c4.418,0,8-3.582,8-8v-48C352,279.582,348.418,276,344,276z     M336,324h-32v-32h32V324z" id="svg_39" fill="#006aff"/>
	</g>
</g><g id="svg_40" class="selected" fill-opacity="1" fill="#006aff">
	<g id="svg_41" fill="#006aff">
		<path d="M48,156h-8c-4.418,0-8,3.582-8,8v8c0,4.418,3.582,8,8,8h8c4.418,0,8-3.582,8-8v-8C56,159.582,52.418,156,48,156z" id="svg_42" fill="#006aff"/>
	</g>
</g><g id="svg_43" class="selected" fill-opacity="1" fill="#006aff">
	<g id="svg_44" fill="#006aff">
		<path d="M80,156h-8c-4.418,0-8,3.582-8,8v8c0,4.418,3.582,8,8,8h8c4.418,0,8-3.582,8-8v-8C88,159.582,84.418,156,80,156z" id="svg_45" fill="#006aff"/>
	</g>
</g><g id="svg_46" class="selected" fill-opacity="1" fill="#006aff">
	<g id="svg_47" fill="#006aff">
		<path d="M48,188h-8c-4.418,0-8,3.582-8,8v8c0,4.418,3.582,8,8,8h8c4.418,0,8-3.582,8-8v-8C56,191.582,52.418,188,48,188z" id="svg_48" fill="#006aff"/>
	</g>
</g><g id="svg_49" class="selected" fill-opacity="1" fill="#006aff">
	<g id="svg_50" fill="#006aff">
		<path d="M80,188h-8c-4.418,0-8,3.582-8,8v8c0,4.418,3.582,8,8,8h8c4.418,0,8-3.582,8-8v-8C88,191.582,84.418,188,80,188z" id="svg_51" fill="#006aff"/>
	</g>
</g><g id="svg_52" class="selected" fill-opacity="1" fill="#006aff">
	<g id="svg_53" fill="#006aff">
		<path d="M48,220h-8c-4.418,0-8,3.582-8,8v8c0,4.418,3.582,8,8,8h8c4.418,0,8-3.582,8-8v-8C56,223.582,52.418,220,48,220z" id="svg_54" fill="#006aff"/>
	</g>
</g><g id="svg_55" class="selected" fill-opacity="1" fill="#006aff">
	<g id="svg_56" fill="#006aff">
		<path d="M80,220h-8c-4.418,0-8,3.582-8,8v8c0,4.418,3.582,8,8,8h8c4.418,0,8-3.582,8-8v-8C88,223.582,84.418,220,80,220z" id="svg_57" fill="#006aff"/>
	</g>
</g><g id="svg_58" class="selected" fill-opacity="1" fill="#006aff">
	<g id="svg_59" fill="#006aff">
		<path d="M48,252h-8c-4.418,0-8,3.582-8,8v8c0,4.418,3.582,8,8,8h8c4.418,0,8-3.582,8-8v-8C56,255.582,52.418,252,48,252z" id="svg_60" fill="#006aff"/>
	</g>
</g><g id="svg_61" class="selected" fill-opacity="1" fill="#006aff">
	<g id="svg_62" fill="#006aff">
		<path d="M80,252h-8c-4.418,0-8,3.582-8,8v8c0,4.418,3.582,8,8,8h8c4.418,0,8-3.582,8-8v-8C88,255.582,84.418,252,80,252z" id="svg_63" fill="#006aff"/>
	</g>
</g><g id="svg_64" class="selected" fill-opacity="1" fill="#006aff">
	<g id="svg_65" fill="#006aff">
		<path d="M48,284h-8c-4.418,0-8,3.582-8,8v8c0,4.418,3.582,8,8,8h8c4.418,0,8-3.582,8-8v-8C56,287.582,52.418,284,48,284z" id="svg_66" fill="#006aff"/>
	</g>
</g><g id="svg_67" class="selected" fill-opacity="1" fill="#006aff">
	<g id="svg_68" fill="#006aff">
		<path d="M80,284h-8c-4.418,0-8,3.582-8,8v8c0,4.418,3.582,8,8,8h8c4.418,0,8-3.582,8-8v-8C88,287.582,84.418,284,80,284z" id="svg_69" fill="#006aff"/>
	</g>
</g><g id="svg_70" class="selected" fill-opacity="1" fill="#006aff">
	<g id="svg_71" fill="#006aff">
		<path d="M48,316h-8c-4.418,0-8,3.582-8,8v8c0,4.418,3.582,8,8,8h8c4.418,0,8-3.582,8-8v-8C56,319.582,52.418,316,48,316z" id="svg_72" fill="#006aff"/>
	</g>
</g><g id="svg_73" class="selected" fill-opacity="1" fill="#006aff">
	<g id="svg_74" fill="#006aff">
		<path d="M80,316h-8c-4.418,0-8,3.582-8,8v8c0,4.418,3.582,8,8,8h8c4.418,0,8-3.582,8-8v-8C88,319.582,84.418,316,80,316z" id="svg_75" fill="#006aff"/>
	</g>
</g><g id="svg_76" class="selected" fill-opacity="1" fill="#006aff">
	<g id="svg_77" fill="#006aff">
		<path d="M48,348h-8c-4.418,0-8,3.582-8,8v8c0,4.418,3.582,8,8,8h8c4.418,0,8-3.582,8-8v-8C56,351.582,52.418,348,48,348z" id="svg_78" fill="#006aff"/>
	</g>
</g><g id="svg_79" class="selected" fill-opacity="1" fill="#006aff">
	<g id="svg_80" fill="#006aff">
		<path d="M80,348h-8c-4.418,0-8,3.582-8,8v8c0,4.418,3.582,8,8,8h8c4.418,0,8-3.582,8-8v-8C88,351.582,84.418,348,80,348z" id="svg_81" fill="#006aff"/>
	</g>
</g><g id="svg_82" class="selected" fill-opacity="1" fill="#006aff">
	<g id="svg_83" fill="#006aff">
		<path d="M48,380h-8c-4.418,0-8,3.582-8,8v8c0,4.418,3.582,8,8,8h8c4.418,0,8-3.582,8-8v-8C56,383.582,52.418,380,48,380z" id="svg_84" fill="#006aff"/>
	</g>
</g><g id="svg_85" class="selected" fill-opacity="1" fill="#006aff">
	<g id="svg_86" fill="#006aff">
		<path d="M80,380h-8c-4.418,0-8,3.582-8,8v8c0,4.418,3.582,8,8,8h8c4.418,0,8-3.582,8-8v-8C88,383.582,84.418,380,80,380z" id="svg_87" fill="#006aff"/>
	</g>
</g><g id="svg_88" class="selected" fill-opacity="1" fill="#006aff">
	<g id="svg_89" fill="#006aff">
		<path d="M48,412h-8c-4.418,0-8,3.582-8,8v8c0,4.418,3.582,8,8,8h8c4.418,0,8-3.582,8-8v-8C56,415.582,52.418,412,48,412z" id="svg_90" fill="#006aff"/>
	</g>
</g><g id="svg_91" class="selected" fill-opacity="1" fill="#006aff">
	<g id="svg_92" fill="#006aff">
		<path d="M80,412h-8c-4.418,0-8,3.582-8,8v8c0,4.418,3.582,8,8,8h8c4.418,0,8-3.582,8-8v-8C88,415.582,84.418,412,80,412z" id="svg_93" fill="#006aff"/>
	</g>
</g><g id="svg_94" class="selected" fill-opacity="1" fill="#006aff">
	<g id="svg_95" fill="#006aff">
		<path d="M440,108h-32c-4.418,0-8,3.582-8,8v32c0,4.418,3.582,8,8,8h32c4.418,0,8-3.582,8-8v-32C448,111.582,444.418,108,440,108z     M432,140h-16v-16h16V140z" id="svg_96" fill="#006aff"/>
	</g>
</g><g id="svg_97" class="selected" fill-opacity="1" fill="#006aff">
	<g id="svg_98" fill="#006aff">
		<path d="M440,172h-32c-4.418,0-8,3.582-8,8v32c0,4.418,3.582,8,8,8h32c4.418,0,8-3.582,8-8v-32C448,175.582,444.418,172,440,172z     M432,204h-16v-16h16V204z" id="svg_99" fill="#006aff"/>
	</g>
</g><g id="svg_100" class="selected" fill-opacity="1" fill="#006aff">
	<g id="svg_101" fill="#006aff">
		<path d="M440,236h-32c-4.418,0-8,3.582-8,8v32c0,4.418,3.582,8,8,8h32c4.418,0,8-3.582,8-8v-32C448,239.582,444.418,236,440,236z     M432,268h-16v-16h16V268z" id="svg_102" fill="#006aff"/>
	</g>
</g><g id="svg_103" class="selected" fill-opacity="1" fill="#006aff">
	<g id="svg_104" fill="#006aff">
		<path d="M440,300h-32c-4.418,0-8,3.582-8,8v32c0,4.418,3.582,8,8,8h32c4.418,0,8-3.582,8-8v-32C448,303.582,444.418,300,440,300z     M432,332h-16v-16h16V332z" id="svg_105" fill="#006aff"/>
	</g>
</g><g id="svg_106" class="selected" fill-opacity="1" fill="#006aff">
	<g id="svg_107" fill="#006aff">
		<path d="M440,364h-32c-4.418,0-8,3.582-8,8v32c0,4.418,3.582,8,8,8h32c4.418,0,8-3.582,8-8v-32C448,367.582,444.418,364,440,364z     M432,396h-16v-16h16V396z" id="svg_108" fill="#006aff"/>
	</g>
</g><g id="svg_109">
</g><g id="svg_110">
</g><g id="svg_111">
</g><g id="svg_112">
</g><g id="svg_113">
</g><g id="svg_114">
</g><g id="svg_115">
</g><g id="svg_116">
</g><g id="svg_117">
</g><g id="svg_118">
</g><g id="svg_119">
</g><g id="svg_120">
</g><g id="svg_121">
</g><g id="svg_122">
</g><g id="svg_123">
</g></g></svg>